<svg xmlns="http://www.w3.org/2000/svg" version="1.1" xmlns:xlink="http://www.w3.org/1999/xlink" xmlns:svgjs="http://svgjs.com/svgjs" width="1298.000000pt" height="864.000000pt"><svg version="1.0" xmlns="http://www.w3.org/2000/svg" width="1298.000000pt" height="864.000000pt" viewBox="0 0 1298.000000 864.000000" preserveAspectRatio="xMidYMid meet">

<g transform="translate(0.000000,864.000000) scale(0.100000,-0.100000)" fill="#000000" stroke="none">
<path d="M7049 6792 c-53 -34 -101 -91 -132 -159 -18 -38 -22 -66 -22 -138 0
-79 4 -97 29 -149 37 -76 96 -135 172 -172 52 -25 70 -29 149 -29 77 0 98 4
145 26 82 39 135 90 172 167 30 61 33 74 33 162 0 84 -4 101 -27 146 -36 69
-74 112 -127 146 -44 28 -47 28 -196 28 -149 0 -152 0 -196 -28z m326 -37
c156 -76 210 -274 113 -419 -60 -92 -183 -146 -286 -126 -130 24 -215 108
-243 239 -8 40 -7 63 5 111 49 189 240 279 411 195z"></path>
<path d="M7300 6093 c-80 -13 -95 -27 -413 -408 -170 -203 -316 -386 -324
-405 -18 -40 -12 -107 14 -150 16 -28 16 -29 -188 -484 l-204 -456 -539 -2
c-507 -3 -539 -4 -550 -21 -9 -15 -7 -21 8 -33 17 -12 107 -14 571 -14 l551 0
210 469 209 468 62 -5 c54 -4 68 -1 107 22 35 20 58 26 105 26 63 0 76 8 66
40 -4 13 -17 20 -44 22 l-38 3 155 188 c85 103 157 185 160 182 6 -6 61 -562
62 -621 0 -34 -38 -120 -216 -480 -118 -242 -230 -468 -247 -504 -37 -76 -43
-162 -14 -217 39 -73 132 -110 212 -83 78 26 104 62 287 410 95 182 175 330
178 330 3 0 54 -119 114 -263 156 -376 179 -422 224 -452 142 -93 320 33 282
201 -5 23 -93 243 -195 489 l-186 448 30 24 c57 45 76 89 75 178 0 47 -8 105
-19 140 -15 50 -19 109 -24 365 -6 305 -6 305 -33 363 -35 73 -113 156 -180
190 -73 36 -186 53 -268 40z m204 -83 c102 -39 182 -132 205 -238 6 -31 11
-159 11 -310 0 -223 3 -267 20 -332 39 -150 21 -238 -57 -279 -36 -18 -56 -53
-326 -565 -290 -549 -319 -594 -370 -597 -93 -5 -135 29 -139 109 -1 36 34
114 251 556 l252 514 -36 376 -36 376 85 102 85 103 -22 17 c-12 10 -25 18
-28 18 -3 0 -142 -165 -308 -366 -175 -211 -313 -369 -328 -375 -45 -17 -74
-10 -109 25 -49 49 -48 97 4 163 184 230 579 691 605 706 46 25 169 23 241 -3z
m354 -1719 c122 -294 182 -452 182 -476 0 -75 -47 -125 -117 -125 -81 0 -94
21 -258 413 l-146 348 73 139 c40 77 75 140 78 140 3 0 88 -198 188 -439z"></path>
<path d="M4896 4978 c18 -62 71 -239 117 -393 l84 -280 509 -2 509 -3 140 312
c77 172 157 350 177 395 l37 83 -804 0 -803 0 34 -112z m1460 25 c-4 -10 -68
-156 -144 -325 l-137 -307 -465 -1 -465 0 -93 311 c-52 171 -96 317 -99 325
-4 12 99 14 702 14 669 0 707 -1 701 -17z"></path>
<path d="M5175 4023 c-150 -79 -161 -286 -19 -369 136 -80 295 -3 320 153 13
82 -41 180 -120 217 -44 21 -141 20 -181 -1z m155 -61 c103 -51 108 -206 8
-258 -102 -53 -218 19 -218 134 0 72 71 142 145 142 17 0 46 -8 65 -18z"></path>
<path d="M5965 4024 c-76 -41 -114 -106 -115 -192 0 -68 17 -108 67 -153 51
-46 101 -63 166 -56 99 12 174 90 184 191 5 47 2 64 -21 109 -38 79 -88 111
-180 115 -51 2 -79 -2 -101 -14z m165 -66 c74 -51 95 -128 54 -199 -75 -129
-269 -75 -269 74 0 116 123 187 215 125z"></path>
<path d="M9127 3186 c-75 -21 -127 -63 -162 -131 l-30 -59 -3 -403 c-3 -341
-1 -413 13 -466 22 -87 58 -135 130 -172 53 -27 68 -30 149 -30 109 1 166 24
221 88 47 55 64 118 72 265 l6 122 -96 0 -95 0 -4 -125 c-4 -146 -13 -164 -91
-172 -41 -5 -49 -2 -77 25 l-30 30 0 402 0 402 29 29 c31 31 68 37 115 19 40
-15 56 -58 56 -155 l0 -85 96 0 97 0 -7 100 c-4 54 -13 121 -21 148 -18 61
-72 124 -130 152 -56 27 -171 35 -238 16z"></path>
<path d="M2530 2560 l0 -620 85 0 85 0 1 443 c0 243 2 438 4 432 3 -5 34 -194
70 -420 36 -225 67 -420 70 -433 5 -22 9 -23 98 -20 l92 3 66 445 67 445 1
-447 1 -448 95 0 95 0 0 620 0 620 -140 0 c-77 0 -140 -3 -140 -7 1 -22 -122
-841 -128 -856 -4 -10 -38 178 -77 420 l-70 438 -138 3 -137 3 0 -621z"></path>
<path d="M3690 2560 l0 -620 100 0 100 0 0 620 0 620 -100 0 -100 0 0 -620z"></path>
<path d="M4220 2560 l0 -620 90 0 90 0 2 451 3 451 120 -451 120 -451 103 0
102 0 0 620 0 620 -90 0 -90 0 -2 -366 -3 -366 -96 363 -96 364 -127 3 -126 3
0 -621z"></path>
<path d="M5180 2560 l0 -620 270 0 270 0 0 85 0 85 -170 0 -170 0 0 185 0 185
135 0 135 0 0 90 0 90 -135 0 -135 0 0 175 0 175 170 0 170 0 0 85 0 85 -270
0 -270 0 0 -620z"></path>
<path d="M6030 2560 l0 -620 85 0 85 0 0 442 c0 243 2 439 5 437 2 -3 34 -187
69 -410 36 -222 68 -419 71 -436 l6 -33 93 0 92 0 65 438 64 437 3 -437 2
-438 95 0 95 0 0 620 0 620 -138 0 -137 0 -65 -435 c-35 -239 -67 -435 -70
-435 -3 0 -36 196 -74 435 l-70 435 -138 0 -138 0 0 -620z"></path>
<path d="M7340 3170 c0 -6 -43 -277 -95 -604 -52 -326 -95 -601 -95 -610 0
-15 11 -16 87 -14 l88 3 15 105 15 105 122 3 121 3 6 -28 c3 -15 10 -65 17
-110 l11 -83 100 0 100 0 -6 28 c-3 15 -46 281 -96 592 -50 311 -93 577 -96
593 l-6 27 -144 0 c-90 0 -144 -4 -144 -10z m186 -517 c24 -164 44 -304 44
-310 0 -10 -26 -13 -96 -13 -86 0 -95 2 -91 18 3 9 24 151 48 314 23 164 44
296 47 294 2 -3 24 -139 48 -303z"></path>
<path d="M8060 3095 l0 -84 103 -3 102 -3 3 -532 2 -533 95 0 95 0 0 535 0
535 105 0 105 0 0 85 0 85 -305 0 -305 0 0 -85z"></path>
<path d="M9830 2560 l0 -620 100 0 100 0 0 265 0 265 110 0 110 0 0 -265 0
-265 100 0 100 0 0 620 0 620 -100 0 -100 0 0 -265 0 -265 -110 0 -110 0 0
265 0 265 -100 0 -100 0 0 -620z"></path>
</g>
</svg><style>@media (prefers-color-scheme: light) { :root { filter: contrast(1) brightness(1); } }
@media (prefers-color-scheme: dark) { :root { filter: contrast(0.8333333333333334) brightness(1.7); } }
</style></svg>